<svg width="32" height="32" viewBox="0 0 32 32" fill="none" xmlns="http://www.w3.org/2000/svg">
  <!-- Background circle -->
  <circle cx="16" cy="16" r="16" fill="#1a4d36"/>
  
  <!-- Tree design -->
  <g transform="translate(6,4)">
    <!-- Tree trunk -->
    <rect x="9" y="18" width="2" height="6" fill="#8B4513"/>
    
    <!-- Tree canopy layers -->
    <ellipse cx="10" cy="16" rx="4" ry="3" fill="#2d6a3e"/>
    <ellipse cx="10" cy="14" rx="3.5" ry="2.5" fill="#3a7c4a"/>
    <ellipse cx="10" cy="12" rx="3" ry="2" fill="#4a8f5a"/>
    
    <!-- Landscape elements -->
    <path d="M2 22 Q6 20 10 22 Q14 20 18 22 L18 24 L2 24 Z" fill="#2d5a3d"/>
    <path d="M0 24 Q4 23 8 24 Q12 23 16 24 Q18 23 20 24 L20 26 L0 26 Z" fill="#4a7c59"/>
  </g>
  
  <!-- Modern architectural accent -->
  <rect x="24" y="20" width="6" height="1" fill="#a0c4a8" opacity="0.8"/>
  <rect x="25" y="18" width="4" height="1" fill="#a0c4a8" opacity="0.6"/>
  <rect x="26" y="16" width="2" height="1" fill="#a0c4a8" opacity="0.4"/>
</svg>
